<?xml version="1.0" encoding="utf-8"?>
<!-- Generator: Adobe Illustrator 21.0.0, SVG Export Plug-In . SVG Version: 6.00 Build 0)  -->
<svg version="1.1" id="Layer_1" xmlns="http://www.w3.org/2000/svg" xmlns:xlink="http://www.w3.org/1999/xlink" x="0px" y="0px"
	 viewBox="0 0 61 61" style="enable-background:new 0 0 61 61;" xml:space="preserve">
<style type="text/css">
	.st0{fill:#455A64;stroke:#424242;stroke-linecap:round;stroke-linejoin:round;stroke-miterlimit:10;}
	.st1{fill:none;stroke:#546E7A;stroke-linecap:round;stroke-linejoin:round;stroke-miterlimit:10;}
	.st2{fill:#546E7A;stroke:#424242;stroke-linecap:round;stroke-linejoin:round;stroke-miterlimit:10;}
	.st3{fill:none;stroke:#78909C;stroke-linecap:round;stroke-linejoin:round;stroke-miterlimit:10;}
	.st4{fill:none;stroke:#455A64;stroke-linecap:round;stroke-linejoin:round;stroke-miterlimit:10;}
	.st5{fill:#FFA726;stroke:#424242;stroke-linecap:round;stroke-linejoin:round;stroke-miterlimit:10;}
	.st6{fill:none;stroke:#FB8C00;stroke-linecap:round;stroke-linejoin:round;stroke-miterlimit:10;}
	.st7{fill:none;stroke:#FFCC80;stroke-linecap:round;stroke-linejoin:round;stroke-miterlimit:10;}
	.st8{fill:#CFD8DC;stroke:#424242;stroke-linecap:round;stroke-linejoin:round;stroke-miterlimit:10;}
	.st9{fill:none;stroke:#ECEFF1;stroke-linecap:round;stroke-linejoin:round;stroke-miterlimit:10;}
	.st10{fill:none;stroke:#B0BEC5;stroke-linecap:round;stroke-linejoin:round;stroke-miterlimit:10;}
	.st11{fill:none;stroke:#424242;stroke-linecap:round;stroke-linejoin:round;stroke-miterlimit:10;}
	.st12{fill:#EC407A;stroke:#424242;stroke-linecap:round;stroke-linejoin:round;stroke-miterlimit:10;}
	.st13{fill:none;stroke:#F48FB1;stroke-linecap:round;stroke-linejoin:round;stroke-miterlimit:10;}
	.st14{fill:none;stroke:#D81B60;stroke-linecap:round;stroke-linejoin:round;stroke-miterlimit:10;}
	.st15{fill:#ECEFF1;stroke:#424242;stroke-linecap:round;stroke-linejoin:round;stroke-miterlimit:10;}
	.st16{fill:#26C6DA;stroke:#424242;stroke-linecap:round;stroke-linejoin:round;stroke-miterlimit:10;}
	.st17{fill:none;stroke:#00ACC1;stroke-linecap:round;stroke-linejoin:round;stroke-miterlimit:10;}
	.st18{fill:none;stroke:#80DEEA;stroke-linecap:round;stroke-linejoin:round;stroke-miterlimit:10;}
	.st19{fill:#B0BEC5;stroke:#424242;stroke-linecap:round;stroke-linejoin:round;stroke-miterlimit:10;}
	.st20{fill:none;stroke:#CFD8DC;stroke-linecap:round;stroke-linejoin:round;stroke-miterlimit:10;}
	.st21{fill:#E0E0E0;stroke:#424242;stroke-linecap:round;stroke-linejoin:round;stroke-miterlimit:10;}
	.st22{fill:#F57F17;stroke:#424242;stroke-linecap:round;stroke-linejoin:round;stroke-miterlimit:10;}
	.st23{fill:none;stroke:#F57F17;stroke-linecap:round;stroke-linejoin:round;stroke-miterlimit:10;}
	.st24{fill:#FB8C00;stroke:#424242;stroke-miterlimit:10;}
	.st25{fill:none;stroke:#0097A7;stroke-linecap:round;stroke-linejoin:round;stroke-miterlimit:10;}
	.st26{fill:#26C6DA;stroke:#0097A7;stroke-linecap:round;stroke-linejoin:round;stroke-miterlimit:10;}
	.st27{fill:none;stroke:#90A4AE;stroke-linecap:round;stroke-linejoin:round;stroke-miterlimit:10;}
	.st28{fill:#CFD8DC;}
	.st29{fill:none;stroke:#424242;stroke-linecap:round;stroke-linejoin:round;}
	.st30{fill:none;stroke:#424242;stroke-linecap:round;stroke-linejoin:round;stroke-dasharray:4.0714,4.0714;}
	.st31{fill:#90A4AE;stroke:#424242;stroke-linecap:round;stroke-linejoin:round;stroke-miterlimit:10;}
	.st32{fill:none;stroke:#78909C;stroke-linecap:round;stroke-miterlimit:10;}
	.st33{fill:none;stroke:#455A64;stroke-linecap:round;stroke-miterlimit:10;}
	.st34{fill:#78909C;stroke:#424242;stroke-linecap:round;stroke-linejoin:round;stroke-miterlimit:10;}
	.st35{fill:none;stroke:#546E7A;stroke-linecap:round;stroke-miterlimit:10;}
	.st36{fill:none;stroke:#FFA726;stroke-linecap:round;stroke-linejoin:round;stroke-miterlimit:10;}
	.st37{fill:#4DD0E1;stroke:#424242;stroke-linecap:round;stroke-linejoin:round;stroke-miterlimit:10;}
	.st38{fill:#00ACC1;stroke:#424242;stroke-linecap:round;stroke-linejoin:round;stroke-miterlimit:10;}
	.st39{fill:#D81B60;stroke:#424242;stroke-linecap:round;stroke-linejoin:round;stroke-miterlimit:10;}
	.st40{fill:none;stroke:#C2185B;stroke-linecap:round;stroke-linejoin:round;stroke-miterlimit:10;}
	.st41{fill:#FB8C00;stroke:#424242;stroke-linecap:round;stroke-linejoin:round;stroke-miterlimit:10;}
	.st42{fill:none;stroke:#37474F;stroke-linecap:round;stroke-linejoin:round;stroke-miterlimit:10;}
	.st43{fill:#B0BEC5;stroke:#424242;stroke-miterlimit:10;}
	.st44{fill:#37474F;stroke:#424242;stroke-linecap:round;stroke-linejoin:round;stroke-miterlimit:10;}
	.st45{fill:#F5F5F5;stroke:#424242;stroke-linecap:round;stroke-linejoin:round;stroke-miterlimit:10;}
	.st46{fill:none;stroke:#FAFAFA;stroke-linecap:round;stroke-linejoin:round;stroke-miterlimit:10;}
	.st47{fill:#F06292;stroke:#424242;stroke-linecap:round;stroke-linejoin:round;stroke-miterlimit:10;}
	.st48{fill:#F48FB1;stroke:#424242;stroke-linecap:round;stroke-linejoin:round;stroke-miterlimit:10;}
</style>
<g>
	<g>
		<path class="st8" d="M48,8.3l1.1,2.3c0.1,0.2,0.2,0.3,0.4,0.3l2.5,0.4c0.5,0.1,0.6,0.6,0.3,0.9l-1.8,1.9c-0.1,0.1-0.2,0.3-0.2,0.5
			l0.4,2.6c0.1,0.5-0.4,0.8-0.8,0.6l-2.2-1.2c-0.2-0.1-0.4-0.1-0.5,0L45,17.9c-0.4,0.2-0.9-0.1-0.8-0.6l0.4-2.6c0-0.2,0-0.4-0.2-0.5
			l-1.8-1.9c-0.3-0.3-0.1-0.9,0.3-0.9l2.5-0.4c0.2,0,0.3-0.1,0.4-0.3L47,8.3C47.2,7.9,47.8,7.9,48,8.3z"/>
		<path class="st9" d="M46,12.9c0.6-0.2,1.1-0.5,1.5-1 M47.5,11.9"/>
	</g>
	<g>
		<path class="st8" d="M27.8,33.5L25,35.3c-3.4,2.2-7.7,2.2-11.1,0l-2.8-1.8C7,30.7,4.5,26,4.5,21V3L10,4.8c6.2,2.1,12.8,2.1,19,0
			L34.5,3v18C34.5,26,32,30.7,27.8,33.5z"/>
		<path class="st19" d="M14,35.3l-2.8-1.8C7,30.7,4.5,26,4.5,21V3h-4v18c0,5,2.5,9.7,6.7,12.5l2.8,1.8c2.3,1.5,5,2,7.5,1.5
			C16.3,36.5,15,36,14,35.3z"/>
		<path class="st21" d="M13.5,20c2.8,0,5-2.2,5-5h-10C8.5,17.8,10.7,20,13.5,20z"/>
		<path class="st21" d="M25.5,20c2.8,0,5-2.2,5-5h-10C20.5,17.8,22.7,20,25.5,20z"/>
		<path class="st21" d="M19.5,27c3.1,0,5.9,1,7.5,2.5c0-3-3.4-5.5-7.5-5.5c-4.1,0-7.5,2.4-7.5,5.5C13.6,28,16.4,27,19.5,27z"/>
		<path class="st9" d="M15.3,33.2l-2.8-1.8C9.1,29,7,25.2,7,21V6.5"/>
		<path class="st10" d="M32,6.5V21c0,4.2-2.1,8.1-5.6,10.4l-2.8,1.8"/>
	</g>
	<g>
		<path class="st8" d="M14,43.3l1.1,2.3c0.1,0.2,0.2,0.3,0.4,0.3l2.5,0.4c0.5,0.1,0.6,0.6,0.3,0.9l-1.8,1.9
			c-0.1,0.1-0.2,0.3-0.2,0.5l0.4,2.6c0.1,0.5-0.4,0.8-0.8,0.6l-2.2-1.2c-0.2-0.1-0.4-0.1-0.5,0l-2.2,1.2c-0.4,0.2-0.9-0.1-0.8-0.6
			l0.4-2.6c0-0.2,0-0.4-0.2-0.5l-1.8-1.9C8.3,47,8.5,46.4,9,46.4l2.5-0.4c0.2,0,0.3-0.1,0.4-0.3l1.1-2.3
			C13.2,42.9,13.8,42.9,14,43.3z"/>
		<path class="st9" d="M12,47.9c0.6-0.2,1.1-0.5,1.5-1 M13.5,46.9"/>
	</g>
	<g>
		<path class="st12" d="M53.8,54.5L51,56.3c-3.4,2.2-7.7,2.2-11.1,0l-2.8-1.8C33,51.7,30.5,47,30.5,42V24l5.5,1.8
			c6.2,2.1,12.8,2.1,19,0l5.5-1.8v18C60.5,47,58,51.7,53.8,54.5z"/>
		<path class="st13" d="M38.6,52.4C35.1,50.1,33,46.2,33,42V27.5"/>
		<path class="st14" d="M58,27.5V42c0,4.2-2.1,8.1-5.6,10.4"/>
		<path class="st39" d="M40,56.3l-2.8-1.8C33,51.7,30.5,47,30.5,42V24h-4v18c0,5,2.5,9.7,6.7,12.5l2.8,1.8c2.3,1.5,5,2,7.5,1.5
			C42.3,57.5,41,57.1,40,56.3z"/>
		<path class="st21" d="M51.5,36c-2.8,0-5,2.2-5,5h10C56.5,38.2,54.3,36,51.5,36z"/>
		<path class="st21" d="M39.5,36c-2.8,0-5,2.2-5,5h10C44.5,38.2,42.3,36,39.5,36z"/>
		<path class="st21" d="M45.5,47.5c-3.1,0-5.9-1-7.5-2.5c0,3,3.4,5.5,7.5,5.5c4.1,0,7.5-2.4,7.5-5.5C51.4,46.5,48.6,47.5,45.5,47.5z
			"/>
	</g>
</g>
</svg>
